<?xml version="1.0" standalone="no"?>
<!DOCTYPE svg PUBLIC "-//W3C//DTD SVG 20010904//EN"
 "http://www.w3.org/TR/2001/REC-SVG-20010904/DTD/svg10.dtd">
<svg version="1.0" xmlns="http://www.w3.org/2000/svg"
 width="310.000000pt" height="310.000000pt" viewBox="0 0 310.000000 310.000000"
 preserveAspectRatio="xMidYMid meet">
<metadata>
Created by potrace 1.14, written by Peter Selinger 2001-2017
</metadata>
<g transform="translate(0.000000,310.000000) scale(0.100000,-0.100000)"
fill="#000000" stroke="none">
<path d="M2257 2705 c-21 -15 -22 -532 -1 -556 13 -14 61 -16 399 -17 318 -1
387 1 398 13 19 18 22 551 3 562 -18 12 -783 10 -799 -2z m773 -285 c0 -243
-1 -250 -20 -250 -11 0 -20 4 -20 9 0 5 -15 12 -32 15 -31 7 -32 8 -14 21 18
14 18 16 4 28 -19 14 -19 58 0 65 7 2 11 -1 10 -6 -3 -11 1 -12 32 -12 16 0
19 6 17 44 -2 49 -13 68 -23 42 -3 -9 -17 -16 -30 -16 -15 0 -24 -6 -24 -16 0
-8 -3 -13 -7 -11 -5 3 -16 -5 -25 -18 -15 -20 -16 -24 -2 -29 21 -8 8 -26 -16
-21 -14 3 -20 -2 -20 -15 0 -24 -60 -90 -67 -72 -6 15 -33 16 -33 1 0 -5 -4
-7 -10 -4 -5 3 -10 27 -10 51 0 52 -24 59 -26 8 -3 -44 -3 -48 -11 -41 -3 4
-17 0 -29 -8 -14 -9 -25 -11 -29 -5 -3 6 1 10 9 10 9 0 16 7 16 16 0 8 -4 12
-10 9 -5 -3 -10 -1 -10 4 0 6 -16 17 -35 25 -19 8 -38 22 -41 31 -8 19 -24 20
-24 0 0 -8 5 -15 10 -15 6 0 10 -12 10 -26 0 -14 4 -23 9 -20 5 3 11 -3 14
-14 6 -24 -14 -32 -30 -11 -11 14 -12 14 -13 1 0 -12 -12 -16 -45 -17 -24 -1
-47 3 -50 8 -4 5 5 9 18 9 14 0 28 7 32 18 6 16 7 16 16 -1 6 -9 14 -15 20
-12 17 11 9 40 -16 58 -25 18 -25 18 -25 -8 0 -16 -6 -25 -15 -25 -22 0 -30 4
-27 13 1 4 -4 7 -12 7 -8 0 -18 5 -22 12 -5 8 -2 9 9 5 10 -4 24 -10 32 -13
11 -5 13 -2 9 10 -3 9 -10 14 -14 11 -4 -3 -10 2 -14 10 -5 14 -76 23 -76 9 0
-11 28 -33 34 -27 3 4 6 -1 6 -10 0 -9 6 -17 13 -17 6 0 4 -5 -6 -11 -14 -8
-23 -7 -36 5 -16 15 -20 14 -54 -19 -20 -19 -38 -35 -42 -35 -3 0 -5 112 -5
250 l0 249 88 3 c48 2 216 2 375 0 l287 -3 0 -249z m-50 -96 c0 -8 -5 -12 -10
-9 -6 4 -8 11 -5 16 9 14 15 11 15 -7z m-70 -93 c0 -6 -4 -13 -10 -16 -5 -3
-10 1 -10 9 0 9 5 16 10 16 6 0 10 -4 10 -9z m-6 -52 c-8 -14 -31 -11 -37 4
-4 10 2 13 19 9 13 -2 21 -8 18 -13z m-524 7 c0 -11 -19 -15 -25 -6 -3 5 1 10
9 10 9 0 16 -2 16 -4z"/>
<path d="M2742 2652 c-18 -2 -30 -8 -27 -13 4 -5 -1 -9 -9 -9 -9 0 -16 5 -16
10 0 6 -11 10 -25 10 -15 0 -25 -6 -25 -14 0 -9 -7 -12 -18 -9 -10 2 -24 -3
-31 -11 -13 -16 -41 -22 -41 -9 0 3 7 15 17 25 15 17 14 18 -15 18 -22 0 -32
-5 -32 -16 0 -8 -4 -12 -10 -9 -6 4 -10 -6 -10 -23 0 -25 3 -29 25 -27 16 2
25 -2 25 -11 0 -19 6 -18 30 6 12 12 18 26 14 32 -4 6 -1 9 7 6 8 -3 13 -11
11 -18 -1 -6 6 -14 17 -17 13 -3 17 -11 14 -24 -7 -25 -23 -25 -23 0 0 29 -14
33 -33 10 -21 -24 -22 -48 -2 -55 14 -6 13 -8 -1 -19 -20 -14 -9 -39 12 -31 8
3 17 -1 20 -9 9 -22 30 -18 31 7 1 11 6 24 10 27 12 9 14 31 3 31 -6 0 -14
-10 -19 -22 -4 -12 -11 -17 -14 -11 -7 10 19 53 32 53 4 0 14 -11 21 -25 7
-14 20 -25 28 -25 12 0 12 -3 2 -15 -7 -8 -16 -12 -22 -9 -5 3 -18 -6 -29 -20
-23 -29 -54 -34 -67 -10 -7 12 -11 13 -17 5 -4 -7 1 -18 11 -26 15 -12 16 -15
4 -16 -8 -1 -19 -1 -24 0 -14 3 -47 -42 -44 -58 2 -9 13 -17 26 -19 16 -3 22
2 22 16 0 22 18 32 56 32 13 0 24 5 24 10 0 6 6 10 12 10 7 0 0 -11 -15 -25
-35 -33 -34 -45 4 -45 17 0 37 -7 45 -15 8 -8 21 -12 29 -8 21 7 44 -14 40
-37 -3 -13 1 -17 11 -13 8 3 14 -1 14 -11 0 -21 16 -21 24 0 3 8 10 13 15 10
5 -4 8 1 7 10 -1 8 -8 19 -15 23 -7 4 -11 12 -10 17 4 21 -2 35 -11 29 -6 -4
-10 5 -10 20 0 17 -5 25 -12 23 -7 -3 -13 -11 -13 -19 0 -19 -20 -30 -38 -23
-13 5 -13 8 4 25 10 10 24 19 29 19 6 0 10 6 9 13 -3 25 2 33 21 34 22 2 28
-23 8 -29 -9 -3 -8 -9 5 -22 18 -19 37 -14 37 10 0 8 5 14 10 14 6 0 10 -7 10
-16 0 -13 3 -14 15 -4 8 7 13 16 10 20 -3 5 2 16 12 25 22 22 3 34 -43 28 -25
-3 -36 0 -40 11 -8 20 -24 21 -24 1 0 -9 -9 -15 -25 -15 -25 0 -35 15 -13 22
6 2 12 15 14 29 1 13 3 26 3 29 1 3 8 -3 16 -14 14 -19 35 -15 31 7 -1 7 -11
24 -24 37 -19 20 -22 21 -28 7 -3 -10 -9 -17 -13 -17 -12 0 -10 44 2 52 7 4
13 12 13 18 1 5 2 16 3 23 1 7 7 5 16 -7 16 -20 34 -14 31 11 -3 20 -30 30
-74 25z m-2 -63 c0 -5 -7 -9 -15 -9 -8 0 -12 -6 -10 -12 7 -19 -10 -40 -29
-36 -9 1 -17 6 -17 11 1 4 1 18 1 31 0 15 7 26 18 28 23 5 52 -2 52 -13z m0
-94 c0 -9 -6 -12 -16 -8 -13 5 -13 7 -2 14 17 11 18 11 18 -6z m-15 -85 c10
-11 15 -26 11 -35 -8 -22 -26 -9 -21 15 2 13 -2 20 -11 20 -8 0 -14 5 -14 10
0 16 15 12 35 -10z m-35 -59 c0 -6 -4 -13 -10 -16 -5 -3 -10 1 -10 9 0 9 5 16
10 16 6 0 10 -4 10 -9z"/>
<path d="M2895 2650 l-59 -5 1 -78 c0 -43 3 -80 6 -83 9 -9 117 -10 117 -1 0
4 9 3 19 -3 25 -13 30 2 30 96 0 71 0 72 -27 75 -15 2 -54 2 -87 -1z m86 -60
c2 -49 -2 -74 -11 -80 -7 -4 -73 -5 -102 -1 -6 1 -4 114 1 116 1 1 26 1 56 1
l55 -1 1 -35z"/>
<path d="M2889 2601 c0 -3 -2 -21 -3 -38 -2 -32 -1 -33 36 -33 37 0 38 0 36
38 -1 35 -3 37 -35 38 -18 1 -33 -1 -34 -5z"/>
<path d="M2307 2643 c-7 -13 -2 -151 5 -159 9 -9 146 -9 155 0 4 3 7 42 8 86
l1 80 -83 0 c-45 0 -84 -3 -86 -7z m136 -22 c4 0 7 -27 5 -58 l-3 -58 -45 -1
c-67 -1 -70 2 -70 60 0 29 2 55 4 57 4 4 86 4 109 0z"/>
<path d="M2356 2601 c-2 -3 -4 -21 -4 -38 0 -24 4 -33 16 -34 9 0 25 -2 35 -4
17 -3 19 3 20 54 1 21 -4 25 -31 26 -18 1 -34 -1 -36 -4z"/>
<path d="M2500 2490 c0 -13 5 -18 15 -14 12 5 13 10 4 20 -15 19 -19 18 -19
-6z"/>
<path d="M2550 2495 c0 -8 5 -15 10 -15 6 0 10 7 10 15 0 8 -4 15 -10 15 -5 0
-10 -7 -10 -15z"/>
<path d="M2330 2448 c0 -27 65 -53 91 -37 9 5 8 12 -5 25 -22 21 -86 30 -86
12z"/>
<path d="M2426 2453 c-10 -11 5 -23 29 -23 16 0 23 5 19 13 -5 13 -38 20 -48
10z"/>
<path d="M2520 2444 c0 -8 -4 -13 -9 -10 -5 3 -11 -8 -13 -24 -3 -20 0 -30 9
-30 7 0 13 7 13 16 0 8 4 13 9 9 12 -7 25 31 16 45 -9 15 -25 12 -25 -6z"/>
<path d="M2934 2451 c3 -5 -1 -17 -9 -27 -18 -24 -19 -47 -2 -41 6 2 11 10 10
16 -4 17 15 13 25 -5 7 -12 11 -13 16 -5 4 7 2 18 -4 26 -7 9 -8 15 -2 15 5 0
12 6 15 14 4 9 -4 13 -24 14 -16 0 -27 -3 -25 -7z"/>
<path d="M2982 2419 c2 -6 8 -10 13 -10 5 0 11 4 13 10 2 6 -4 11 -13 11 -9 0
-15 -5 -13 -11z"/>
<path d="M2307 2403 c-7 -14 -2 -131 6 -140 5 -4 13 0 18 10 6 9 17 17 24 17
8 0 15 5 15 10 0 6 11 10 24 10 35 0 37 11 10 40 -20 20 -24 22 -24 7 0 -9 -7
-17 -15 -17 -8 0 -15 -7 -15 -15 0 -8 -4 -15 -10 -15 -5 0 -10 4 -10 9 0 6 5
13 10 16 6 3 10 13 10 21 0 8 -4 12 -10 9 -5 -3 -10 -1 -10 5 0 6 7 13 15 16
8 4 15 10 15 15 0 11 -47 12 -53 2z"/>
<path d="M2450 2395 c0 -9 6 -12 15 -9 8 4 12 10 9 15 -8 14 -24 10 -24 -6z"/>
<path d="M2457 2363 c-12 -11 -8 -30 7 -30 8 0 11 8 8 19 -5 20 -6 21 -15 11z"/>
<path d="M2833 2326 c5 -16 54 -20 54 -4 0 8 -13 14 -29 15 -18 0 -27 -4 -25
-11z"/>
<path d="M2456 2312 c-15 -14 -4 -32 17 -28 26 4 30 28 5 32 -9 1 -19 -1 -22
-4z"/>
<path d="M2575 2310 c-5 -9 -4 -15 3 -18 7 -2 12 -9 12 -16 0 -12 14 -13 53
-7 14 2 -4 21 -20 21 -9 0 -21 7 -28 17 -10 13 -14 13 -20 3z"/>
<path d="M2668 2283 c-8 -15 -3 -36 10 -40 6 -3 12 2 12 11 0 9 0 19 1 23 1
11 -18 16 -23 6z"/>
<path d="M2321 2246 c-15 -15 -19 -26 -12 -31 6 -3 14 1 17 9 3 9 10 13 15 10
5 -3 9 4 9 15 0 26 -2 26 -29 -3z"/>
<path d="M2980 2255 c0 -8 7 -15 15 -15 8 0 15 4 15 9 0 5 -7 11 -15 15 -9 3
-15 0 -15 -9z"/>
<path d="M99 2532 c-12 -22 -15 -75 -14 -290 1 -231 3 -264 18 -279 15 -15 51
-17 329 -18 l313 0 3 -735 c2 -676 4 -736 19 -747 13 -10 100 -13 354 -13 369
0 368 0 369 58 1 15 2 344 3 732 l2 705 305 1 c222 0 311 4 328 13 l23 12 -1
282 c-1 265 -2 284 -20 295 -14 8 -273 11 -1017 11 l-999 0 -15 -27z"/>
<path d="M2436 2093 c-1 -1 -36 -3 -78 -4 -54 -1 -79 -6 -82 -16 -3 -7 -5
-391 -5 -852 1 -774 2 -839 17 -843 32 -7 731 -2 739 6 4 4 8 388 9 852 l0
845 -21 5 c-20 5 -574 12 -579 7z m559 -55 c10 -6 11 -45 4 -123 -1 -16 -5 1
-8 40 l-6 70 -74 0 c-85 0 -89 -3 -84 -93 3 -66 9 -86 23 -77 6 4 37 6 70 6
33 0 62 4 65 10 4 5 9 9 13 9 4 0 7 -327 6 -727 l-1 -728 -21 -1 c-23 -1 -32
29 -12 41 13 8 13 28 -1 23 -6 -2 -10 -7 -9 -12 1 -5 -4 -12 -12 -17 -7 -5
-13 -14 -13 -21 0 -18 -56 -23 -66 -6 -7 10 -11 10 -21 0 -16 -16 -29 -16 -27
1 5 40 -28 47 -46 9 -10 -23 -27 -26 -125 -22 -65 2 -76 20 -12 20 38 0 50 3
46 13 -3 10 -27 13 -84 12 -74 0 -100 8 -65 21 29 11 4 65 -32 70 -16 2 -16 1
1 -12 16 -11 17 -17 8 -26 -7 -7 -12 -27 -12 -45 0 -29 3 -33 27 -33 19 0 24
-3 16 -11 -6 -6 -23 -9 -39 -7 l-29 3 0 82 1 81 -71 0 c-38 -1 -76 -6 -82 -11
-10 -7 -13 -3 -13 17 0 16 4 25 10 21 6 -4 20 5 32 20 l21 27 22 -26 c17 -20
32 -26 63 -26 23 0 42 -5 45 -12 3 -9 10 -8 26 6 30 27 26 34 -16 34 -21 0
-44 0 -51 1 -20 2 -3 21 19 21 10 0 19 5 19 10 0 6 8 10 17 10 9 0 13 -3 10
-7 -4 -3 2 -13 14 -21 11 -8 23 -11 27 -7 3 3 1 9 -5 13 -6 4 -13 16 -15 27
-3 19 -25 44 -40 45 -5 0 -8 -8 -8 -18 0 -10 -3 -21 -6 -24 -9 -9 -44 3 -38
13 3 5 9 7 14 4 4 -3 6 4 3 16 -6 20 -7 20 -32 -8 -15 -18 -33 -28 -44 -25 -9
2 -15 8 -12 13 4 5 -1 9 -9 9 -9 0 -16 -8 -16 -17 0 -15 -4 -14 -19 6 -14 18
-20 21 -24 10 -3 -8 -6 0 -6 16 -1 22 2 26 9 15 8 -12 10 -12 16 3 3 9 12 17
19 17 16 0 73 29 80 41 4 5 0 9 -8 9 -8 0 -18 8 -22 18 -6 16 -7 16 -20 -2
-13 -17 -15 -17 -29 -3 -17 17 -22 42 -7 33 5 -3 11 1 14 8 7 18 -13 26 -35
14 -16 -8 -18 -3 -18 43 0 39 3 49 13 42 6 -5 44 -8 82 -8 l70 0 0 85 0 85
-83 0 c-82 0 -82 0 -82 26 0 25 1 26 78 25 l77 -1 3 74 c2 41 -1 78 -6 83 -6
6 -42 10 -81 10 -39 0 -71 3 -71 6 0 3 12 18 26 33 24 25 27 26 44 11 11 -8
17 -19 14 -23 -2 -4 16 -7 42 -7 32 0 50 -6 59 -19 13 -16 15 -16 15 2 0 3 15
18 32 35 25 22 29 29 16 30 -12 0 -18 8 -18 25 0 14 -4 25 -10 25 -5 0 -10 7
-10 15 0 24 -17 17 -22 -9 -5 -25 12 -56 31 -56 12 0 16 -20 4 -21 -57 -5 -83
-3 -83 7 0 6 11 15 25 18 14 4 23 11 20 15 -3 5 -14 7 -25 4 -14 -4 -20 0 -20
11 0 10 4 14 10 11 9 -6 27 42 18 50 -2 3 -37 6 -77 7 -54 1 -75 -2 -82 -13
-6 -10 -9 -4 -9 21 0 23 3 30 9 22 6 -11 13 -7 30 14 l21 27 24 -26 c18 -19
31 -24 60 -22 25 1 40 -3 45 -13 7 -13 14 -10 42 18 21 21 29 35 21 38 -6 2
-12 15 -12 28 0 15 -6 24 -16 24 -8 0 -12 5 -9 10 3 6 -1 10 -9 10 -25 0 -19
-37 11 -59 32 -26 25 -35 -24 -33 -44 2 -72 22 -30 22 18 0 27 5 27 16 0 11
-6 15 -20 11 -24 -6 -38 11 -16 19 16 6 22 24 9 24 -5 0 -21 -11 -37 -25 -16
-14 -30 -25 -31 -25 -2 0 -18 14 -36 31 -25 23 -30 32 -19 39 16 10 42 2 34
-11 -3 -5 2 -9 10 -9 9 0 16 -7 16 -16 0 -13 5 -11 25 7 31 30 31 35 3 36 -49
1 -59 3 -53 13 3 6 15 10 26 10 23 0 24 6 5 26 -19 19 -25 18 -47 -8 -11 -11
-22 -18 -27 -13 -4 4 -1 10 6 12 6 3 12 11 12 18 0 7 -6 16 -12 19 -10 5 -10
7 0 12 22 10 13 26 -13 22 -23 -5 -25 -3 -25 36 l0 41 83 -3 84 -2 1 62 c2
105 3 103 -76 102 -39 -1 -75 -5 -81 -8 -10 -7 -16 15 -7 25 7 7 670 4 681 -3z
m-540 -98 l0 -55 -50 -1 c-28 0 -55 1 -61 3 -12 4 -7 105 6 113 5 3 31 3 57 0
l48 -5 0 -55z m512 -3 l-2 -52 -55 0 -55 0 0 55 0 55 40 5 c63 9 75 -1 72 -63z
m-616 -330 c-8 -8 -11 -6 -11 7 0 12 -5 16 -15 12 -11 -4 -15 2 -15 20 l0 25
26 -26 c20 -20 24 -29 15 -38z m-18 -11 c3 -8 -1 -17 -9 -20 -9 -4 -14 1 -14
14 0 23 15 27 23 6z m116 -128 c-6 -11 -14 -17 -18 -12 -3 5 -13 10 -21 12
-12 3 -13 1 -2 -9 18 -20 15 -29 -10 -25 -13 2 -22 9 -21 15 2 5 -3 8 -10 6
-6 -3 -18 4 -24 14 -12 19 -9 20 52 20 63 0 65 -1 54 -21z m-113 -44 c-9 -9
-20 -13 -24 -9 -4 4 -1 10 6 12 6 3 12 12 12 21 0 12 3 13 11 5 9 -9 7 -16 -5
-29z m104 -113 c10 -2 5 -101 -5 -102 -5 -1 -20 -5 -32 -10 -13 -5 -23 -5 -23
0 0 4 -11 6 -25 3 -24 -4 -25 -3 -25 55 l0 60 53 -2 c28 -1 54 -3 57 -4z m12
-256 c0 -28 0 -56 -1 -63 -1 -9 -16 -12 -53 -10 l-53 3 -3 60 -3 60 57 0 57 0
-1 -50z m-92 -266 c0 -6 -4 -7 -10 -4 -5 3 -10 11 -10 16 0 6 5 7 10 4 6 -3
10 -11 10 -16z m-29 -114 c1 -17 -18 -17 -25 0 -4 11 -1 15 10 13 8 -2 15 -7
15 -13z m119 -135 c3 -13 3 -41 2 -62 l-4 -38 -53 0 c-44 0 -54 3 -58 20 -3
11 -2 20 2 20 4 0 5 16 3 36 -5 43 2 49 60 49 38 0 44 -3 48 -25z"/>
<path d="M2520 2010 c-27 -24 -23 -55 8 -54 12 1 22 -4 22 -12 0 -19 16 -18
24 2 3 8 11 12 17 8 9 -5 7 -11 -4 -19 -10 -7 -17 -19 -17 -28 0 -8 -6 -17
-12 -20 -20 -7 4 -41 31 -45 12 -2 25 -10 28 -18 3 -8 9 -11 14 -8 13 8 11 42
-3 47 -7 2 -10 8 -5 12 4 5 13 3 19 -3 9 -9 15 -9 26 0 10 9 16 8 22 -3 8 -11
12 -11 24 6 10 12 15 15 16 7 0 -20 -26 -42 -49 -42 -12 0 -21 -6 -21 -16 0
-8 -4 -12 -10 -9 -5 3 -10 -1 -10 -9 0 -10 -9 -16 -26 -16 -14 0 -23 4 -19 9
3 5 1 12 -4 15 -19 12 -23 -16 -5 -29 18 -14 18 -14 -3 -15 -24 0 -58 -27 -58
-45 0 -20 16 -34 30 -28 18 6 20 -8 3 -26 -10 -11 -10 -14 0 -18 6 -3 12 -16
12 -29 0 -13 5 -23 11 -22 7 2 12 -13 13 -37 2 -50 60 -123 83 -104 18 15 17
29 -3 29 -8 0 -12 5 -9 10 3 6 -1 10 -9 10 -9 0 -16 6 -16 14 0 8 9 12 25 11
16 -2 25 2 25 11 0 8 5 14 10 14 6 0 10 -4 10 -9 0 -6 -4 -13 -10 -16 -17 -10
-11 -25 10 -25 11 0 20 5 20 10 0 6 5 10 11 10 12 0 38 29 39 43 0 4 -4 7 -10
7 -5 0 -10 -7 -10 -16 0 -13 -3 -14 -14 -4 -10 8 -14 25 -11 51 3 29 1 39 -10
39 -10 0 -15 -11 -15 -35 0 -27 -4 -35 -19 -35 -10 0 -27 11 -37 25 -11 14
-29 25 -42 25 -13 0 -20 4 -17 10 3 6 -1 10 -9 10 -9 0 -16 7 -16 17 0 15 1
15 18 0 23 -21 52 -22 52 -3 0 10 -8 13 -26 10 -15 -3 -23 -1 -20 5 4 5 -1 14
-10 19 -27 15 -13 46 21 47 17 0 35 6 41 14 9 12 12 11 17 -3 4 -10 12 -14 18
-10 7 4 10 1 7 -6 -2 -8 -10 -16 -18 -18 -7 -3 -10 0 -6 6 3 6 2 13 -4 17 -6
3 -13 -1 -16 -9 -3 -9 -13 -16 -21 -16 -8 0 -11 -4 -8 -10 3 -5 22 -10 41 -10
24 0 34 -4 34 -16 0 -12 8 -15 33 -12 28 3 32 0 31 -20 0 -12 5 -22 12 -22 6
0 15 -7 18 -17 6 -14 9 -14 27 6 18 19 18 23 5 36 -8 9 -13 22 -10 30 4 9 0
15 -10 15 -9 0 -16 8 -16 18 0 30 11 32 35 6 23 -25 49 -31 60 -14 4 6 -5 10
-19 10 -21 0 -26 5 -26 25 0 27 15 34 24 10 3 -8 10 -15 15 -15 6 0 8 6 6 13
-3 6 0 19 5 27 8 12 12 13 19 2 7 -12 12 -12 30 -1 11 8 21 20 21 27 0 7 5 10
10 7 6 -3 10 1 10 10 0 11 -7 15 -22 13 -15 -2 -23 -10 -23 -22 0 -11 -6 -21
-13 -24 -6 -2 -12 3 -12 11 0 10 -11 13 -40 12 -24 -1 -45 4 -51 12 -15 17
-29 17 -29 -1 0 -10 -8 -13 -21 -11 -30 6 -35 13 -15 21 9 3 16 17 16 32 0 24
1 24 18 9 37 -33 46 -6 11 34 -16 18 -22 20 -28 10 -12 -19 -31 -5 -26 20 3
13 0 19 -8 16 -7 -2 -13 -13 -15 -25 -2 -16 -10 -22 -28 -22 -14 0 -23 -4 -19
-9 3 -5 2 -12 -3 -15 -11 -6 -39 26 -44 51 -1 10 -18 25 -35 33 -32 15 -43 30
-23 30 15 0 12 17 -4 23 -8 3 -24 -3 -36 -13z m69 -149 c-15 -5 -22 6 -14 19
6 9 10 9 16 -1 5 -8 4 -15 -2 -18z m146 -91 c-1 -22 -20 -23 -19 0 0 11 -5 20
-13 20 -7 0 -13 7 -13 15 0 14 3 14 23 -2 13 -9 23 -24 22 -33z m75 10 c0 -5
-7 -10 -15 -10 -8 0 -15 -7 -15 -16 0 -8 -4 -13 -9 -9 -5 3 -11 -5 -13 -17 -2
-15 -11 -24 -25 -26 -30 -4 -29 5 3 30 14 11 23 26 20 33 -2 7 -2 16 1 19 10
10 53 7 53 -4z m-145 -210 c3 -5 2 -10 -4 -10 -5 0 -13 5 -16 10 -3 6 -2 10 4
10 5 0 13 -4 16 -10z"/>
<path d="M2658 2023 c-10 -3 -18 -9 -18 -15 0 -5 -6 -8 -14 -5 -24 9 -35 -16
-15 -35 9 -9 20 -14 23 -10 3 3 6 -7 6 -22 0 -17 5 -26 12 -24 7 3 12 18 13
34 0 25 4 29 30 30 17 1 38 -5 48 -14 16 -14 17 -13 17 11 0 31 8 34 25 10 11
-15 13 -15 20 6 9 29 5 33 -45 35 -29 2 -44 -2 -50 -13 -8 -15 -10 -15 -22 0
-7 9 -21 14 -30 12z"/>
<path d="M2500 1870 c0 -5 5 -10 10 -10 6 0 10 5 10 10 0 6 -4 10 -10 10 -5 0
-10 -4 -10 -10z"/>
<path d="M2340 1829 c0 -20 29 -39 59 -39 34 0 37 6 17 33 -14 19 -76 24 -76
6z"/>
<path d="M2430 1827 c0 -8 9 -14 20 -13 28 1 30 20 3 24 -15 2 -23 -2 -23 -11z"/>
<path d="M2510 1816 c-14 -26 -7 -61 10 -51 6 4 8 11 5 16 -4 5 1 9 9 9 10 0
16 9 16 25 0 32 -23 32 -40 1z"/>
<path d="M2962 1797 c-20 -21 -21 -25 -7 -31 23 -8 9 -26 -16 -21 -15 3 -19 0
-15 -10 3 -9 -1 -15 -9 -15 -8 0 -15 -4 -15 -10 0 -5 -7 -10 -15 -10 -8 0 -15
-5 -15 -10 0 -6 7 -13 15 -16 24 -9 17 -24 -10 -24 -18 0 -25 -5 -25 -20 0
-11 -7 -23 -15 -26 -8 -4 -12 -10 -9 -15 3 -5 -2 -9 -11 -9 -9 0 -13 -4 -10
-10 3 -5 -1 -10 -9 -10 -10 0 -16 -9 -16 -25 0 -19 -5 -25 -21 -25 -29 0 -49
-24 -56 -65 -7 -42 -24 -45 -60 -11 -15 14 -31 23 -35 20 -10 -6 -38 14 -38
27 0 5 7 9 16 9 9 0 14 6 11 13 -2 6 -10 11 -16 9 -6 -1 -11 5 -11 13 0 8 -4
15 -10 15 -17 0 -11 -74 10 -105 12 -18 17 -38 14 -52 -6 -23 27 -78 40 -66 3
3 6 -6 6 -20 0 -15 -4 -27 -10 -27 -5 0 -10 7 -10 15 0 22 -16 18 -34 -9 -18
-29 -13 -34 34 -30 53 3 53 3 47 18 -3 8 1 20 9 27 13 10 11 16 -11 39 -21 22
-23 29 -12 33 9 3 23 -3 32 -13 10 -11 21 -17 25 -15 4 3 14 -3 21 -12 12 -14
12 -16 -2 -11 -10 4 -16 1 -16 -8 0 -18 11 -18 27 0 6 8 18 12 26 9 15 -6 20
-43 5 -43 -15 0 -20 -41 -6 -46 7 -3 16 -15 19 -28 6 -23 46 -32 46 -10 0 20
-12 44 -19 40 -4 -3 -13 -1 -20 4 -15 9 -8 40 9 40 6 0 9 -4 5 -9 -3 -5 -1
-12 5 -16 5 -3 10 -2 10 4 0 18 39 23 56 7 20 -21 27 -20 48 3 20 22 14 43 -9
34 -11 -4 -15 2 -15 21 0 14 2 26 5 26 11 0 43 -39 37 -46 -4 -3 0 -5 8 -2 8
3 17 13 19 24 2 10 8 22 15 27 8 5 7 9 -2 15 -7 5 -14 19 -15 30 -1 14 -8 22
-19 22 -24 0 -31 17 -11 24 14 6 14 9 -5 22 -12 8 -22 24 -22 35 0 25 12 24
30 -2 8 -11 22 -24 31 -29 13 -7 15 -4 11 21 -3 17 0 29 7 29 6 0 11 7 11 16
0 8 -4 12 -10 9 -6 -4 -10 5 -10 19 0 19 -5 26 -19 26 -26 0 -37 18 -17 26 20
8 21 24 1 24 -10 0 -15 10 -15 29 0 33 17 51 26 27 3 -9 15 -16 25 -16 16 0
19 8 19 49 0 30 -5 51 -12 54 -10 4 -10 8 1 15 7 5 12 15 10 21 -3 8 -13 3
-27 -12z m8 -87 c0 -5 -4 -10 -10 -10 -5 0 -10 5 -10 10 0 6 5 10 10 10 6 0
10 -4 10 -10z m-75 -90 c3 -5 -1 -10 -10 -10 -9 0 -13 5 -10 10 3 6 8 10 10
10 2 0 7 -4 10 -10z m5 -50 c0 -5 -11 -10 -25 -10 -14 0 -25 5 -25 10 0 6 11
10 25 10 14 0 25 -4 25 -10z m-34 -39 c6 -1 10 -13 8 -28 -1 -15 2 -35 7 -44
6 -11 5 -20 -1 -24 -5 -3 -10 3 -10 14 0 26 -20 28 -27 2 -2 -10 -16 -24 -29
-31 -13 -8 -24 -20 -24 -29 -1 -13 -4 -12 -16 4 -15 20 -15 20 -30 1 -14 -20
-16 -16 -16 29 0 60 2 65 27 65 15 0 25 -6 25 -15 0 -10 -6 -12 -17 -8 -16 6
-17 5 -3 -13 8 -10 15 -21 17 -23 1 -1 11 5 22 16 12 11 17 23 12 31 -15 25
-1 59 22 56 12 -1 27 -3 33 -3z m78 -12 c-3 -5 -10 -7 -15 -3 -5 3 -7 10 -3
15 3 5 10 7 15 3 5 -3 7 -10 3 -15z m-289 -119 c3 -5 -1 -10 -9 -10 -9 0 -16
5 -16 10 0 6 4 10 9 10 6 0 13 -4 16 -10z m235 1 c0 -11 -39 -21 -45 -11 -2 4
-2 10 2 14 10 9 43 7 43 -3z m-190 -32 c0 -5 -7 -9 -15 -9 -9 0 -12 6 -9 15 6
15 24 11 24 -6z m70 -5 c0 -18 -4 -25 -14 -21 -7 3 -19 0 -25 -6 -8 -8 -11 -7
-11 6 0 9 7 17 15 17 8 0 15 7 15 15 0 8 5 15 10 15 6 0 10 -12 10 -26z m96
-30 c5 -28 -18 -46 -48 -39 -18 5 -23 13 -23 36 -1 28 1 30 34 27 26 -2 35 -8
37 -24z m69 16 c3 -5 2 -10 -4 -10 -5 0 -13 5 -16 10 -3 6 -2 10 4 10 5 0 13
-4 16 -10z"/>
<path d="M2830 1501 c0 -17 18 -21 24 -6 3 9 0 15 -9 15 -8 0 -15 -4 -15 -9z"/>
<path d="M2820 1330 c0 -13 18 -22 24 -11 3 5 -1 11 -9 15 -8 3 -15 1 -15 -4z"/>
<path d="M2450 1780 c0 -5 7 -10 15 -10 8 0 15 5 15 10 0 6 -7 10 -15 10 -8 0
-15 -4 -15 -10z"/>
<path d="M2456 1741 c-4 -5 -2 -12 3 -15 5 -4 12 -2 15 3 4 5 2 12 -3 15 -5 4
-12 2 -15 -3z"/>
<path d="M2460 1685 c7 -8 19 -15 26 -15 8 0 14 7 14 15 0 10 -10 15 -26 15
-22 0 -25 -2 -14 -15z"/>
<path d="M2669 1678 c-8 -19 -4 -48 7 -48 16 0 19 36 4 45 -5 3 -11 5 -11 3z"/>
<path d="M2974 1649 c-3 -6 -1 -16 5 -22 8 -8 11 -5 11 11 0 24 -5 28 -16 11z"/>
<path d="M2540 1332 c0 -45 4 -50 26 -28 19 19 18 30 -6 51 -20 18 -20 17 -20
-23z"/>
<path d="M2490 1312 c0 -4 6 -14 13 -21 10 -11 10 -14 0 -18 -17 -6 -17 -58 0
-72 8 -6 17 -8 21 -4 4 4 11 1 16 -7 12 -19 37 -21 44 -3 4 10 17 14 39 12 33
-3 61 7 53 20 -3 3 -35 6 -73 5 -82 -1 -100 3 -77 20 18 14 15 52 -4 49 -7 -2
-12 4 -12 12 0 8 -4 15 -10 15 -5 0 -10 -4 -10 -8z"/>
<path d="M2675 1291 c-3 -6 3 -15 14 -20 13 -7 17 -17 14 -31 -3 -11 0 -20 6
-20 6 0 11 3 12 8 0 4 2 14 4 22 3 18 -41 54 -50 41z"/>
<path d="M2930 1260 c0 -5 7 -10 15 -10 8 0 15 5 15 10 0 6 -7 10 -15 10 -8 0
-15 -4 -15 -10z"/>
<path d="M2950 1233 c-17 -21 -20 -47 -5 -50 6 -2 10 7 11 20 0 12 6 21 12 20
7 -2 12 4 12 12 0 20 -12 19 -30 -2z"/>
<path d="M2856 1207 c-15 -16 -16 -21 -5 -28 9 -6 15 -3 17 6 2 8 12 15 23 15
24 0 25 25 2 26 -10 1 -26 -8 -37 -19z"/>
<path d="M2519 1112 c-8 -10 -18 -26 -22 -35 -6 -16 -3 -19 26 -21 6 -1 17 -8
23 -15 10 -13 16 -10 37 15 15 16 27 23 27 17 0 -7 -4 -13 -10 -13 -5 0 -10
-5 -10 -11 0 -7 -7 -17 -15 -23 -13 -10 -13 -14 -1 -38 9 -16 11 -30 5 -33
-14 -10 -11 -25 6 -25 14 0 65 -39 54 -41 -35 -6 -44 -10 -47 -18 -2 -6 -15
-11 -30 -11 -14 0 -23 -3 -20 -6 4 -3 -3 -15 -14 -26 -20 -20 -20 -22 -3 -35
28 -20 45 -16 45 12 0 19 5 25 22 25 12 0 30 7 40 16 16 16 18 16 24 0 3 -9
13 -16 22 -16 13 0 14 -2 3 -12 -10 -11 -14 -10 -22 5 -14 23 -25 21 -33 -5
-3 -13 -7 -25 -8 -28 -2 -3 9 -5 24 -6 15 -1 35 -7 44 -15 9 -8 27 -12 40 -11
22 3 27 -4 23 -34 0 -3 10 -14 22 -25 22 -19 22 -19 37 2 10 15 11 24 3 32 -6
6 -11 22 -11 35 0 13 -4 21 -9 18 -5 -3 -11 3 -14 14 -8 31 12 34 34 6 11 -15
24 -24 28 -21 5 2 19 -7 31 -20 13 -14 18 -26 12 -26 -7 -1 -18 -2 -24 -3 -7
0 -13 -11 -13 -23 0 -13 -4 -23 -8 -22 -5 0 -17 -11 -28 -25 -23 -29 -39 -33
-39 -10 0 8 -5 12 -10 9 -6 -4 -8 -11 -5 -16 4 -5 -1 -9 -9 -9 -12 0 -16 11
-16 50 0 37 -3 48 -13 44 -8 -3 -13 -19 -13 -37 1 -24 -3 -32 -17 -32 -10 0
-22 -7 -27 -15 -5 -8 -12 -11 -17 -7 -4 5 -2 12 6 16 11 7 11 12 0 30 -8 11
-20 21 -27 21 -7 0 -20 7 -29 15 -8 8 -18 13 -22 10 -11 -6 -1 -55 10 -55 5 0
9 -16 9 -36 0 -23 9 -47 26 -69 19 -25 23 -38 16 -51 -8 -15 -10 -15 -15 0 -4
9 -11 16 -17 16 -6 0 -9 -4 -5 -9 3 -5 -4 -13 -16 -16 -35 -11 -6 -27 42 -23
31 2 43 7 41 17 -2 7 5 22 14 32 15 17 13 24 -8 20 -5 0 -8 6 -8 15 0 8 -4 13
-9 10 -5 -3 -11 1 -15 9 -4 11 2 15 20 15 17 0 23 -4 18 -12 -4 -7 -4 -10 1
-6 4 4 16 3 25 -2 14 -7 22 -4 36 15 24 32 47 34 35 3 -5 -13 -16 -22 -25 -20
-9 2 -16 -4 -16 -13 0 -8 -8 -15 -17 -15 -14 0 -15 -2 -4 -12 11 -10 14 -10
18 0 5 13 35 17 46 6 4 -4 -1 -19 -10 -34 -9 -15 -13 -35 -10 -45 10 -24 28
-8 23 21 -5 26 8 33 18 9 3 -8 13 -15 21 -15 9 0 14 4 11 9 -3 5 1 12 9 15 9
3 18 -1 21 -9 4 -9 19 -15 36 -15 17 0 27 4 23 10 -3 6 1 10 10 10 24 0 12 24
-13 28 -27 4 -29 33 -4 55 21 19 32 22 32 7 0 -5 -7 -10 -15 -10 -19 0 -19
-19 0 -26 8 -4 13 -10 10 -14 -3 -4 2 -10 10 -14 11 -4 15 1 15 17 0 13 5 28
11 34 12 12 -20 77 -39 79 -25 3 -25 4 -6 19 18 14 18 16 1 26 -11 6 -16 20
-15 40 2 29 12 37 23 19 7 -12 45 -14 46 -2 6 63 2 85 -17 103 -13 12 -24 16
-28 10 -4 -5 4 -17 16 -25 12 -9 18 -16 13 -17 -41 -3 -75 -25 -75 -48 0 -6
-4 -11 -10 -11 -5 0 -10 7 -10 15 0 9 -9 15 -25 15 -18 0 -25 5 -25 19 0 25
16 36 24 15 8 -20 26 -8 26 17 0 10 5 19 10 19 6 0 10 7 10 15 0 11 -12 15
-45 15 -25 0 -45 5 -45 10 0 6 -7 10 -15 10 -8 0 -15 -4 -15 -10 0 -5 -9 -10
-20 -10 -23 0 -27 15 -5 24 8 3 12 12 9 20 -3 8 -1 17 4 20 6 3 12 -1 16 -9 3
-8 12 -12 20 -9 12 4 13 11 6 24 -5 9 -6 20 -3 24 3 3 -1 6 -10 6 -8 0 -17 6
-20 13 -3 8 -10 6 -21 -8 -15 -20 -15 -19 -16 6 0 15 6 29 14 32 8 3 13 14 12
24 -5 30 6 37 20 12 11 -21 13 -22 19 -6 13 31 -2 47 -44 47 -28 0 -41 -5 -46
-17 -6 -17 -7 -17 -16 0 -12 21 -48 22 -56 1 -3 -8 -11 -13 -18 -10 -7 2 -20
-5 -29 -16 -15 -16 -20 -18 -33 -6 -15 12 -15 13 1 16 9 2 15 9 13 15 -6 19
-31 19 -48 -1z m211 -42 c0 -5 -8 -14 -17 -19 -10 -6 -14 -11 -10 -11 4 0 3
-9 -3 -20 -6 -11 -16 -17 -25 -14 -9 4 -15 0 -15 -10 0 -16 -12 -21 -23 -9 -4
3 2 12 13 20 11 8 17 20 14 28 -11 27 4 45 36 45 16 0 30 -4 30 -10z m-93 -40
c1 -11 -4 -20 -10 -20 -7 0 -13 9 -14 20 -1 11 4 20 10 20 7 0 13 -9 14 -20z
m-2 -59 c3 -5 1 -12 -5 -16 -5 -3 -10 1 -10 9 0 18 6 21 15 7z m70 -9 c4 10
11 16 16 13 12 -8 -23 -45 -42 -45 -10 0 -19 -6 -22 -12 -3 -9 -8 -10 -16 -2
-9 8 -6 17 10 38 20 25 22 26 34 9 13 -17 14 -17 20 -1z m-3 -74 c-7 -7 -12
-8 -12 -2 0 14 12 26 19 19 2 -3 -1 -11 -7 -17z m73 -43 c-14 -17 -25 -39 -25
-48 0 -10 -8 -15 -20 -14 -11 1 -20 5 -20 10 0 12 27 37 40 37 6 0 8 5 5 10
-12 20 5 48 25 43 18 -5 18 -7 -5 -38z m-50 -3 c-3 -4 -10 0 -15 8 -6 9 -5 17
3 22 13 8 24 -19 12 -30z m235 -52 c0 -5 -7 -7 -15 -4 -8 4 -12 10 -9 15 6 11
24 2 24 -11z m-70 -90 c0 -5 -4 -10 -10 -10 -5 0 -10 5 -10 10 0 6 5 10 10 10
6 0 10 -4 10 -10z m-2 -51 c-2 -6 -7 -10 -11 -10 -4 1 -14 1 -23 1 -8 0 -12 5
-9 10 8 13 48 13 43 -1z m-184 -30 c-3 -5 -10 -7 -15 -3 -5 3 -7 10 -3 15 3 5
10 7 15 3 5 -3 7 -10 3 -15z m157 -16 c7 -38 4 -55 -9 -62 -34 -19 -70 17 -55
55 5 14 62 20 64 7z"/>
<path d="M2816 581 c-3 -5 1 -11 9 -15 15 -6 29 7 18 18 -9 9 -21 8 -27 -3z"/>
<path d="M2822 1043 l3 -87 78 -1 77 0 1 47 c1 27 1 59 1 73 0 54 2 52 -82 54
l-81 2 3 -88z m127 58 c7 0 11 -7 7 -16 -3 -8 -1 -15 3 -15 5 0 5 -17 0 -37
-4 -21 -8 -40 -8 -43 -1 -3 -23 -6 -51 -8 -35 -2 -50 1 -51 10 -11 113 -6 119
100 109z"/>
<path d="M2869 1070 c-1 -6 -1 -19 -1 -30 0 -40 -3 -38 58 -31 6 0 11 16 12
34 1 32 -1 34 -33 35 -19 1 -35 -3 -36 -8z"/>
<path d="M2500 969 c0 -15 18 -19 23 -6 3 8 -1 14 -9 14 -8 0 -14 -4 -14 -8z"/>
<path d="M2546 965 c4 -8 10 -15 15 -15 5 0 9 7 9 15 0 8 -7 15 -15 15 -9 0
-12 -6 -9 -15z"/>
<path d="M2350 905 c22 -23 80 -36 80 -17 -1 23 -30 42 -65 42 l-38 0 23 -25z"/>
<path d="M2430 920 c-17 -11 -16 -12 23 -14 15 -1 26 3 24 9 -5 14 -29 17 -47
5z"/>
<path d="M2513 915 c-14 -15 -18 -55 -5 -55 16 1 37 26 39 48 3 25 -15 29 -34
7z"/>
<path d="M2910 905 c0 -14 -4 -25 -10 -25 -5 0 -10 -8 -10 -17 1 -14 7 -11 29
13 27 29 30 31 45 16 11 -12 16 -13 16 -3 0 19 -26 41 -49 41 -16 0 -21 -6
-21 -25z"/>
<path d="M2565 901 c-7 -12 12 -24 25 -16 11 7 4 25 -10 25 -5 0 -11 -4 -15
-9z"/>
<path d="M2450 876 c0 -2 7 -9 15 -16 12 -10 15 -10 15 4 0 9 -7 16 -15 16 -8
0 -15 -2 -15 -4z"/>
<path d="M2450 820 c0 -5 7 -10 15 -10 8 0 15 5 15 10 0 6 -7 10 -15 10 -8 0
-15 -4 -15 -10z"/>
<path d="M2456 773 c-4 -10 -15 -14 -30 -11 -36 7 -56 -9 -34 -26 10 -7 15
-16 11 -19 -3 -4 -1 -7 6 -7 6 0 23 11 37 25 14 14 32 25 40 25 20 0 13 23 -8
26 -9 1 -19 -5 -22 -13z"/>
<path d="M2563 770 c-13 -11 -23 -25 -23 -30 0 -14 6 -12 24 6 15 14 17 14 32
0 17 -17 27 -20 37 -9 11 10 -13 32 -28 27 -7 -3 -15 2 -17 11 -3 14 -6 14
-25 -5z"/>
<path d="M2660 745 c0 -8 0 -18 0 -22 0 -20 24 -5 25 15 1 12 -4 22 -12 22 -7
0 -13 -7 -13 -15z"/>
<path d="M2340 725 c0 -16 16 -20 24 -6 3 5 -1 11 -9 15 -9 3 -15 0 -15 -9z"/>
<path d="M2960 720 c0 -5 5 -10 10 -10 6 0 10 5 10 10 0 6 -4 10 -10 10 -5 0
-10 -4 -10 -10z"/>
<path d="M2543 575 c0 -41 12 -44 39 -12 17 19 18 22 4 25 -9 2 -16 8 -16 13
0 5 -6 9 -13 9 -9 0 -14 -13 -14 -35z"/>
<path d="M2680 531 c0 -5 7 -14 15 -21 8 -6 14 -15 13 -18 -2 -20 3 -32 12
-27 6 3 10 17 10 30 0 18 -4 23 -15 19 -11 -5 -13 -2 -9 10 4 11 1 16 -10 16
-9 0 -16 -4 -16 -9z"/>
<path d="M2935 500 c-3 -5 1 -10 9 -10 9 0 16 5 16 10 0 6 -4 10 -9 10 -6 0
-13 -4 -16 -10z"/>
<path d="M2869 459 c-11 -6 -10 -9 4 -15 19 -7 53 3 43 13 -10 11 -32 12 -47
2z"/>
<path d="M2364 1942 c1 -32 4 -35 34 -36 31 -1 32 1 32 36 0 36 -1 37 -34 36
-32 -1 -34 -3 -32 -36z"/>
<path d="M2879 1972 c0 -4 -3 -19 -5 -34 -4 -22 -1 -28 13 -29 10 0 26 -2 35
-4 19 -3 26 9 24 45 -1 21 -6 25 -33 27 -18 1 -33 -2 -34 -5z"/>
<path d="M2356 1290 c-2 -3 -4 -20 -4 -38 -1 -31 1 -32 34 -30 19 2 34 6 34
11 0 4 0 19 0 35 0 23 -4 27 -31 27 -17 1 -32 -2 -33 -5z"/>
<path d="M2364 1066 c-3 -8 -4 -25 -2 -38 2 -18 10 -23 36 -24 31 -1 32 0 32
37 0 37 -2 39 -30 39 -17 0 -33 -6 -36 -14z"/>
<path d="M2364 526 c-3 -8 -4 -25 -2 -37 2 -17 10 -23 36 -25 18 -1 30 2 27 7
-4 5 -2 9 3 9 5 0 7 13 4 28 -3 23 -9 28 -33 30 -18 1 -32 -3 -35 -12z"/>
</g>
</svg>
